<svg style="display: none;" aria-hidden="true" xmlns="http://www.w3.org/2000/svg" xmlns:xlink="http://www.w3.org/1999/xlink"><symbol class="aionicon" viewBox="0 0 512 512" id="svg-checkmark" xmlns="http://www.w3.org/2000/svg"><path d="M448 256c0-106-86-192-192-192S64 150 64 256s86 192 192 192 192-86 192-192z" fill="none" stroke="currentColor" stroke-miterlimit="10" stroke-width="32"/><path fill="none" stroke="currentColor" stroke-linecap="round" stroke-linejoin="round" stroke-width="32" d="M352 176 217.6 336 160 272"/></symbol><symbol class="bionicon" viewBox="0 0 512 512" id="svg-faq" xmlns="http://www.w3.org/2000/svg"><path d="M160 164s1.44-33 33.54-59.46C212.6 88.83 235.49 84.28 256 84c18.73-.23 35.47 2.94 45.48 7.82C318.59 100.2 352 120.6 352 164c0 45.67-29.18 66.37-62.35 89.18S248 298.36 248 324" fill="none" stroke="currentColor" stroke-linecap="round" stroke-miterlimit="10" stroke-width="40"/><circle cx="248" cy="399.99" r="32"/></symbol><symbol class="cionicon" viewBox="0 0 512 512" id="svg-home" xmlns="http://www.w3.org/2000/svg"><path d="M80 212v236a16 16 0 0 0 16 16h96V328a24 24 0 0 1 24-24h80a24 24 0 0 1 24 24v136h96a16 16 0 0 0 16-16V212" fill="none" stroke="currentColor" stroke-linecap="round" stroke-linejoin="round" stroke-width="32"/><path d="M480 256 266.89 52c-5-5.28-16.69-5.34-21.78 0L32 256m368-77V64h-48v69" fill="none" stroke="currentColor" stroke-linecap="round" stroke-linejoin="round" stroke-width="32"/></symbol><symbol viewBox="0 0 32 32" fill="currentColor" id="svg-person" xmlns="http://www.w3.org/2000/svg"><path d="M11.429 16a5.715 5.715 0 1 0-5.715-5.714A5.72 5.72 0 0 0 11.429 16zM18.905 20.721A10.434 10.434 0 0 0 1 28a1 1 0 0 0 1 1h18.86a1 1 0 0 0 1-1 10.067 10.067 0 0 0-.485-3.124 10.36 10.36 0 0 0-2.47-4.155z"/><circle cx="23.5" cy="12.25" r="4.25"/><path d="M23.5 17.67a7.482 7.482 0 0 0-3.806 1.057c.217.194.436.385.641.595a12.388 12.388 0 0 1 2.952 4.966 11.488 11.488 0 0 1 .437 1.882H30a1 1 0 0 0 1-1 7.508 7.508 0 0 0-7.5-7.5z"/></symbol><symbol class="eionicon" viewBox="0 0 512 512" id="svg-review" xmlns="http://www.w3.org/2000/svg"><path d="M480 208H308L256 48l-52 160H32l140 96-54 160 138-100 138 100-54-160z" fill="none" stroke="currentColor" stroke-linejoin="round" stroke-width="32"/></symbol></svg>