<svg id="Слой_1" data-name="Слой 1" xmlns="http://www.w3.org/2000/svg" viewBox="0 0 508.2 244.5"><defs><style>.cls-1{font-size:127.3px;fill:#fff;font-family:FactorATRIAL-Extrabold, Factor A TRIAL;font-weight:800;}.cls-2{font-size:117.81px;}.cls-3{fill:#ff915f;}</style></defs><text class="cls-1" transform="translate(210.74 111.39)">naka<tspan class="cls-2"><tspan x="0" y="102.95">store</tspan></tspan></text><path class="cls-3" d="M898.36,495.12a6.74,6.74,0,0,0-.42-.68l-4.4-6c-9.19-12.53-18.69-25.49-28.08-38.21A7.07,7.07,0,0,0,860,447.6q-30.32,0-60.64-.05l-42.83,0a6.54,6.54,0,0,0-5.59,2.86q-11.87,16.25-23.76,32.44l-7.94,10.85c-.25.33-.48.69-.71,1.05l-1.8,2.73,91.94,121.18,91.06-121Zm-54.26-26L843,465.7c3.83,0,7.61,0,11.38,0q8.25,11.19,16.45,22.41H850.33Q847.25,478.6,844.1,469.08Zm-81.85-3.34c3.75,0,7.48-.05,11.37,0-.76,2.3-1.5,4.57-2.24,6.83l-.66,2c-1.48,4.52-3,9-4.44,13.62q-7.28,0-14.54,0H745.8Q754,476.93,762.25,465.74Zm-16,40.55h20.16q7.9,23.75,15.84,47.46Zm62.3,68.85-23-68.79h45.73Zm-23.12-87.05,6.41-19.57c.31-.95.63-1.89.93-2.83h13q9.11,0,18.21,0c2.48,7.45,5,15,7.35,22.36Zm49.14,66.05,2.08-6.29q6.87-20.8,13.73-41.59c6.49,0,13.06,0,19.42,0h.77Z" transform="translate(-716.75 -402.38)"/></svg>